<svg width="18" height="17" viewBox="0 0 18 17" fill="none" xmlns="http://www.w3.org/2000/svg">
<path d="M16.6445 1.43604H13.728C13.6696 1.43604 13.6136 1.45924 13.5723 1.50054C13.531 1.54185 13.5078 1.59786 13.5078 1.65628C13.5078 1.69381 13.5196 1.72739 13.5359 1.758V3.43598C13.536 3.49747 13.5239 3.55838 13.5004 3.6152C13.4769 3.67203 13.4424 3.72366 13.3989 3.76714C13.3555 3.81063 13.3038 3.84511 13.247 3.86861C13.1902 3.89211 13.1293 3.90418 13.0678 3.90411H12.1601C12.1031 3.90411 12.0466 3.89287 11.9938 3.87103C11.9411 3.8492 11.8932 3.81719 11.8529 3.77683C11.8125 3.73648 11.7805 3.68858 11.7587 3.63585C11.7368 3.58313 11.7256 3.52662 11.7256 3.46956V1.78516C11.7547 1.74842 11.771 1.70315 11.772 1.65628C11.7721 1.62734 11.7664 1.59867 11.7554 1.57192C11.7443 1.54517 11.7281 1.52086 11.7076 1.5004C11.6872 1.47993 11.6629 1.46371 11.6361 1.45267C11.6094 1.44162 11.5807 1.43597 11.5518 1.43604H5.67292C5.61451 1.43604 5.55849 1.45924 5.51719 1.50054C5.47588 1.54185 5.45268 1.59786 5.45268 1.65628C5.45268 1.69035 5.46206 1.72146 5.47589 1.75059V3.44783C5.47589 3.50781 5.46408 3.56721 5.44112 3.62263C5.41817 3.67805 5.38452 3.7284 5.3421 3.77082C5.29969 3.81323 5.24933 3.84688 5.19391 3.86984C5.1385 3.89279 5.0791 3.90461 5.01911 3.90461H4.21321C4.09089 3.90461 3.97357 3.85601 3.88708 3.76952C3.80058 3.68302 3.75199 3.56571 3.75199 3.44338V1.76294C3.7716 1.73076 3.78233 1.69395 3.7831 1.65628C3.78316 1.62734 3.77751 1.59867 3.76647 1.57192C3.75542 1.54517 3.7392 1.52086 3.71874 1.5004C3.69827 1.47993 3.67397 1.46371 3.64722 1.45267C3.62047 1.44162 3.5918 1.43597 3.56286 1.43604H0.489862C0.360068 1.43617 0.23562 1.48775 0.143796 1.57948C0.0519713 1.67121 0.000261353 1.79561 0 1.9254V16.5097C0 16.7803 0.219747 17 0.489862 17H16.6445C16.7743 16.9998 16.8988 16.948 16.9905 16.8561C17.0823 16.7641 17.1338 16.6396 17.1338 16.5097V1.9254C17.1336 1.7957 17.0819 1.67137 16.9902 1.57966C16.8985 1.48794 16.7742 1.4363 16.6445 1.43604ZM16.6445 16.5595H0.489862C0.483336 16.5595 0.476874 16.5583 0.47085 16.5557C0.464826 16.5532 0.459361 16.5495 0.454769 16.5449C0.450177 16.5403 0.44655 16.5348 0.444097 16.5287C0.441645 16.5227 0.440416 16.5162 0.440481 16.5097V5.51098H16.6933V16.5092C16.6935 16.5157 16.6923 16.5222 16.6899 16.5283C16.6875 16.5343 16.684 16.5399 16.6794 16.5446C16.6749 16.5492 16.6694 16.553 16.6634 16.5556C16.6574 16.5581 16.651 16.5595 16.6445 16.5595Z" fill="white"/>
<path d="M4.67337 3.40237C4.79484 3.40237 4.89361 3.30361 4.89361 3.18213V0.220241C4.89361 0.191318 4.88791 0.162679 4.87684 0.135958C4.86577 0.109237 4.84955 0.0849582 4.8291 0.064507C4.80865 0.0440558 4.78437 0.027833 4.75765 0.0167649C4.73093 0.00569675 4.70229 0 4.67337 0C4.64444 0 4.6158 0.00569675 4.58908 0.0167649C4.56236 0.027833 4.53808 0.0440558 4.51763 0.064507C4.49718 0.0849582 4.48096 0.109237 4.46989 0.135958C4.45882 0.162679 4.45312 0.191318 4.45313 0.220241V3.18262C4.45313 3.3041 4.55189 3.40237 4.67337 3.40237ZM12.6504 3.40237C12.7719 3.40237 12.8707 3.30361 12.8707 3.18213V0.220241C12.8707 0.191318 12.865 0.162679 12.8539 0.135958C12.8428 0.109237 12.8266 0.0849582 12.8061 0.064507C12.7857 0.0440558 12.7614 0.027833 12.7347 0.0167649C12.708 0.00569675 12.6793 0 12.6504 0C12.6215 0 12.5929 0.00569675 12.5661 0.0167649C12.5394 0.027833 12.5151 0.0440558 12.4947 0.064507C12.4742 0.0849582 12.458 0.109237 12.4469 0.135958C12.4359 0.162679 12.4302 0.191318 12.4302 0.220241V3.18262C12.4302 3.3041 12.5284 3.40237 12.6504 3.40237Z" fill="white"/>
<path d="M3.53508 8.84268C4.20544 8.84268 4.74887 8.29925 4.74887 7.62889C4.74887 6.95853 4.20544 6.4151 3.53508 6.4151C2.86472 6.4151 2.32129 6.95853 2.32129 7.62889C2.32129 8.29925 2.86472 8.84268 3.53508 8.84268Z" fill="white"/>
<path d="M7.02361 8.84268C7.69397 8.84268 8.2374 8.29925 8.2374 7.62889C8.2374 6.95853 7.69397 6.4151 7.02361 6.4151C6.35325 6.4151 5.80981 6.95853 5.80981 7.62889C5.80981 8.29925 6.35325 8.84268 7.02361 8.84268Z" fill="white"/>
<path d="M10.5114 8.84268C11.1818 8.84268 11.7252 8.29925 11.7252 7.62889C11.7252 6.95853 11.1818 6.4151 10.5114 6.4151C9.84104 6.4151 9.29761 6.95853 9.29761 7.62889C9.29761 8.29925 9.84104 8.84268 10.5114 8.84268Z" fill="white"/>
<path d="M3.53508 12.2229C4.20544 12.2229 4.74887 11.6794 4.74887 11.0091C4.74887 10.3387 4.20544 9.79529 3.53508 9.79529C2.86472 9.79529 2.32129 10.3387 2.32129 11.0091C2.32129 11.6794 2.86472 12.2229 3.53508 12.2229Z" fill="white"/>
<path d="M7.02361 12.2229C7.69397 12.2229 8.2374 11.6794 8.2374 11.0091C8.2374 10.3387 7.69397 9.79529 7.02361 9.79529C6.35325 9.79529 5.80981 10.3387 5.80981 11.0091C5.80981 11.6794 6.35325 12.2229 7.02361 12.2229Z" fill="white"/>
<path d="M10.5114 12.2229C11.1818 12.2229 11.7252 11.6794 11.7252 11.0091C11.7252 10.3387 11.1818 9.79529 10.5114 9.79529C9.84104 9.79529 9.29761 10.3387 9.29761 11.0091C9.29761 11.6794 9.84104 12.2229 10.5114 12.2229Z" fill="white"/>
<path d="M3.53508 15.603C4.20544 15.603 4.74887 15.0596 4.74887 14.3892C4.74887 13.7188 4.20544 13.1754 3.53508 13.1754C2.86472 13.1754 2.32129 13.7188 2.32129 14.3892C2.32129 15.0596 2.86472 15.603 3.53508 15.603Z" fill="white"/>
<path d="M7.02361 15.603C7.69397 15.603 8.2374 15.0596 8.2374 14.3892C8.2374 13.7188 7.69397 13.1754 7.02361 13.1754C6.35325 13.1754 5.80981 13.7188 5.80981 14.3892C5.80981 15.0596 6.35325 15.603 7.02361 15.603Z" fill="white"/>
<path d="M10.5114 15.603C11.1818 15.603 11.7252 15.0596 11.7252 14.3892C11.7252 13.7188 11.1818 13.1754 10.5114 13.1754C9.84104 13.1754 9.29761 13.7188 9.29761 14.3892C9.29761 15.0596 9.84104 15.603 10.5114 15.603Z" fill="white"/>
<path d="M13.9176 8.84268C14.588 8.84268 15.1314 8.29925 15.1314 7.62889C15.1314 6.95853 14.588 6.4151 13.9176 6.4151C13.2473 6.4151 12.7039 6.95853 12.7039 7.62889C12.7039 8.29925 13.2473 8.84268 13.9176 8.84268Z" fill="white"/>
<path d="M13.9176 12.2229C14.588 12.2229 15.1314 11.6794 15.1314 11.0091C15.1314 10.3387 14.588 9.79529 13.9176 9.79529C13.2473 9.79529 12.7039 10.3387 12.7039 11.0091C12.7039 11.6794 13.2473 12.2229 13.9176 12.2229Z" fill="white"/>
<path d="M13.9176 15.603C14.588 15.603 15.1314 15.0596 15.1314 14.3892C15.1314 13.7188 14.588 13.1754 13.9176 13.1754C13.2473 13.1754 12.7039 13.7188 12.7039 14.3892C12.7039 15.0596 13.2473 15.603 13.9176 15.603Z" fill="white"/>
</svg>
