<svg width="14" height="14" viewBox="0 0 14 14" fill="none" xmlns="http://www.w3.org/2000/svg">
<path fill-rule="evenodd" clip-rule="evenodd" d="M6.64992 0C6.78253 0 6.90971 0.0526784 7.00347 0.146447C7.09724 0.240215 7.14992 0.367392 7.14992 0.5V2.672C7.14992 2.80461 7.09724 2.93179 7.00347 3.02555C6.90971 3.11932 6.78253 3.172 6.64992 3.172C6.51731 3.172 6.39014 3.11932 6.29637 3.02555C6.2026 2.93179 6.14992 2.80461 6.14992 2.672V1.022C4.88913 1.13411 3.70251 1.66634 2.7803 2.53334C1.8581 3.40035 1.25374 4.55191 1.06412 5.80339C0.8745 7.05487 1.11061 8.33377 1.73458 9.43504C2.35856 10.5363 3.33426 11.3962 4.50525 11.8767C5.67624 12.3573 6.97468 12.4308 8.19239 12.0853C9.41009 11.7398 10.4765 10.9955 11.2207 9.9716C11.9649 8.94771 12.3437 7.70359 12.2964 6.43871C12.2491 5.17383 11.7785 3.96147 10.9599 2.996C10.9153 2.94627 10.8811 2.88811 10.8593 2.82494C10.8376 2.76177 10.8287 2.69488 10.8332 2.62822C10.8377 2.56157 10.8556 2.49649 10.8857 2.43684C10.9158 2.37719 10.9575 2.32418 11.0085 2.28094C11.0594 2.2377 11.1185 2.2051 11.1822 2.18507C11.2459 2.16505 11.313 2.158 11.3796 2.16434C11.4461 2.17069 11.5106 2.1903 11.5694 2.22201C11.6282 2.25373 11.6801 2.29691 11.7219 2.349C12.7018 3.50454 13.2578 4.96006 13.2977 6.47463C13.3377 7.9892 12.8593 9.472 11.9416 10.6776C11.024 11.8832 9.72221 12.7393 8.25171 13.1042C6.78122 13.4691 5.2302 13.321 3.85539 12.6843C2.48058 12.0476 1.36441 10.9605 0.691632 9.60293C0.0188551 8.2454 -0.17019 6.69883 0.15579 5.21922C0.481771 3.73961 1.30323 2.41567 2.4842 1.46655C3.66516 0.517425 5.13483 2.88612e-05 6.64992 0ZM7.40992 7.23L9.92592 3.723C9.95942 3.67486 9.97493 3.61647 9.96973 3.55805C9.96453 3.49964 9.93896 3.4449 9.89749 3.40343C9.85602 3.36196 9.80129 3.33639 9.74287 3.33119C9.68445 3.32599 9.62606 3.3415 9.57792 3.375L6.06892 5.89C5.95602 5.97129 5.86213 6.07614 5.79376 6.1973C5.72539 6.31846 5.68417 6.45303 5.67296 6.5917C5.66174 6.73037 5.6808 6.86981 5.72881 7.00039C5.77682 7.13096 5.85264 7.24954 5.95101 7.34791C6.04938 7.44628 6.16796 7.5221 6.29853 7.57011C6.42911 7.61812 6.56855 7.63718 6.70722 7.62596C6.84589 7.61475 6.98046 7.57353 7.10162 7.50516C7.22278 7.43679 7.32764 7.3429 7.40892 7.23H7.40992Z" fill="white"/>
</svg>
